<?xml version="1.0" encoding="utf-8"?>
<!-- Generator: Adobe Illustrator 16.0.0, SVG Export Plug-In . SVG Version: 6.00 Build 0)  -->
<!DOCTYPE svg PUBLIC "-//W3C//DTD SVG 1.1//EN" "http://www.w3.org/Graphics/SVG/1.1/DTD/svg11.dtd">
<svg version="1.1" xmlns="http://www.w3.org/2000/svg" xmlns:xlink="http://www.w3.org/1999/xlink" x="0px" y="0px" width="300px"
	 height="300px" viewBox="0 0 300 300" enable-background="new 0 0 300 300" xml:space="preserve">
<g id="Layer_1">
	<g>
		<circle fill="#FFFFFF" cx="149.75" cy="150" r="150"/>
	</g>
	<g>
		<circle fill="none" cx="149.625" cy="149.709" r="28.959"/>
		<path fill="none" d="M149.625,179.167c-16.244,0-29.458-13.215-29.458-29.458c0-16.244,13.215-29.459,29.458-29.459
			c16.244,0,29.459,13.215,29.459,29.459C179.084,165.952,165.869,179.167,149.625,179.167z M149.625,121.25
			c-15.692,0-28.458,12.767-28.458,28.459c0,15.691,12.767,28.458,28.458,28.458c15.692,0,28.459-12.767,28.459-28.458
			C178.084,134.017,165.317,121.25,149.625,121.25z"/>
	</g>
	<g>
		<path fill="none" d="M150.416,203.25C120.962,203.25,97,179.287,97,149.833s23.962-53.417,53.417-53.417
			s53.417,23.962,53.417,53.417S179.87,203.25,150.416,203.25z M150.416,102.417c-26.146,0-47.417,21.271-47.417,47.417
			s21.271,47.417,47.417,47.417s47.417-21.271,47.417-47.417S176.562,102.417,150.416,102.417z"/>
	</g>
</g>
<g id="Layer_2">
	<g>
		<path fill="none" d="M288.971,100.167L198,132.741v-0.003c-4-9.426-9.592-17.548-17.493-23.413l-0.032,0.129l58.105-78.312l0,0
			C261.99,48.142,278.938,72.151,288.971,100.167"/>
	</g>
</g>
</svg>
