<?xml version="1.0" encoding="utf-8"?>
<!-- Generator: Adobe Illustrator 16.0.0, SVG Export Plug-In . SVG Version: 6.00 Build 0)  -->
<!DOCTYPE svg PUBLIC "-//W3C//DTD SVG 1.1//EN" "http://www.w3.org/Graphics/SVG/1.1/DTD/svg11.dtd">
<svg version="1.1" id="Layer_1" xmlns="http://www.w3.org/2000/svg" xmlns:xlink="http://www.w3.org/1999/xlink" x="0px" y="0px"
	 width="1200px" height="800px" viewBox="0 0 1200 800" enable-background="new 0 0 1200 800" xml:space="preserve">
<g>
	<rect x="529.5" y="0.5" fill="none" stroke="#4D4D4D" stroke-miterlimit="10" width="54" height="54"/>
	<rect x="583.5" y="26.5" fill="none" stroke="#4D4D4D" stroke-miterlimit="10" width="54" height="54"/>
	<rect x="649.5" y="24.5" fill="none" stroke="#4D4D4D" stroke-miterlimit="10" width="54" height="54"/>
	<rect x="703.5" y="92.5" fill="none" stroke="#4D4D4D" stroke-miterlimit="10" width="54" height="54"/>
	<rect x="757.5" y="134.5" fill="none" stroke="#4D4D4D" stroke-miterlimit="10" width="54" height="54"/>
	<rect x="703.5" y="161.5" fill="none" stroke="#4D4D4D" stroke-miterlimit="10" width="54" height="54"/>
	<rect x="649.5" y="188.5" fill="none" stroke="#4D4D4D" stroke-miterlimit="10" width="54" height="54"/>
	<rect x="703.5" y="215.5" fill="none" stroke="#4D4D4D" stroke-miterlimit="10" width="54" height="54"/>
	<rect x="757.5" y="215.5" fill="none" stroke="#4D4D4D" stroke-miterlimit="10" width="54" height="54"/>
	<rect x="732.5" y="269.5" fill="none" stroke="#4D4D4D" stroke-miterlimit="10" width="54" height="54"/>
	<rect x="798.5" y="269.5" fill="none" stroke="#4D4D4D" stroke-miterlimit="10" width="54" height="54"/>
	<rect x="811.5" y="323.5" fill="none" stroke="#4D4D4D" stroke-miterlimit="10" width="54" height="54"/>
	<rect x="865.5" y="348.5" fill="none" stroke="#4D4D4D" stroke-miterlimit="10" width="54" height="54"/>
	<rect x="919.5" y="375.5" fill="none" stroke="#4D4D4D" stroke-miterlimit="10" width="54" height="54"/>
	<rect x="865.5" y="282.5" fill="none" stroke="#4D4D4D" stroke-miterlimit="10" width="54" height="54"/>
	<rect x="678.5" y="338.5" fill="none" stroke="#4D4D4D" stroke-miterlimit="10" width="54" height="54"/>
	<rect x="678.5" y="392.5" fill="none" stroke="#4D4D4D" stroke-miterlimit="10" width="54" height="54"/>
	<rect x="732.5" y="377.5" fill="none" stroke="#4D4D4D" stroke-miterlimit="10" width="54" height="54"/>
	<rect x="678.5" y="284.5" fill="none" stroke="#4D4D4D" stroke-miterlimit="10" width="54" height="54"/>
	<rect x="624.5" y="309.5" fill="none" stroke="#4D4D4D" stroke-miterlimit="10" width="54" height="54"/>
	<rect x="811.5" y="215.5" fill="none" stroke="#4D4D4D" stroke-miterlimit="10" width="54" height="54"/>
	<rect x="825.5" y="161.5" fill="none" stroke="#4D4D4D" stroke-miterlimit="10" width="54" height="54"/>
	<rect x="879.5" y="201.5" fill="none" stroke="#4D4D4D" stroke-miterlimit="10" width="54" height="54"/>
	<rect x="919.5" y="267.5" fill="none" stroke="#4D4D4D" stroke-miterlimit="10" width="54" height="54"/>
	<rect x="825.5" y="92.5" fill="none" stroke="#4D4D4D" stroke-miterlimit="10" width="54" height="54"/>
	<rect x="879.5" y="107.5" fill="none" stroke="#4D4D4D" stroke-miterlimit="10" width="54" height="54"/>
	<rect x="649.5" y="105.5" fill="none" stroke="#4D4D4D" stroke-miterlimit="10" width="54" height="54"/>
	<rect x="703.5" y="24.5" fill="none" stroke="#4D4D4D" stroke-miterlimit="10" width="54" height="54"/>
	<rect x="757.5" y="0.5" fill="none" stroke="#4D4D4D" stroke-miterlimit="10" width="54" height="54"/>
	<rect x="811.5" y="26.5" fill="none" stroke="#4D4D4D" stroke-miterlimit="10" width="54" height="54"/>
	<rect x="865.5" y="26.5" fill="none" stroke="#4D4D4D" stroke-miterlimit="10" width="54" height="54"/>
	<rect x="919.5" y="26.5" fill="none" stroke="#4D4D4D" stroke-miterlimit="10" width="54" height="54"/>
	<rect x="516.5" y="119.5" fill="none" stroke="#4D4D4D" stroke-miterlimit="10" width="54" height="54"/>
	<rect x="570.5" y="146.5" fill="none" stroke="#4D4D4D" stroke-miterlimit="10" width="54" height="54"/>
	<rect x="568.5" y="254.5" fill="none" stroke="#4D4D4D" stroke-miterlimit="10" width="54" height="54"/>
	<rect x="543.5" y="308.5" fill="none" stroke="#4D4D4D" stroke-miterlimit="10" width="54" height="54"/>
	<rect x="529.5" y="362.5" fill="none" stroke="#4D4D4D" stroke-miterlimit="10" width="54" height="54"/>
	<rect x="54.5" y="0.5" fill="none" stroke="#4D4D4D" stroke-miterlimit="10" width="54" height="54"/>
	<rect x="54.5" y="54.5" fill="none" stroke="#4D4D4D" stroke-miterlimit="10" width="54" height="54"/>
	<rect x="54.5" y="108.5" fill="none" stroke="#4D4D4D" stroke-miterlimit="10" width="54" height="54"/>
	<rect x="0.5" y="81.5" fill="none" stroke="#4D4D4D" stroke-miterlimit="10" width="54" height="54"/>
	<rect x="0.5" y="216.5" fill="none" stroke="#4D4D4D" stroke-miterlimit="10" width="54" height="54"/>
	<rect x="108.5" y="189.5" fill="none" stroke="#4D4D4D" stroke-miterlimit="10" width="54" height="54"/>
	<rect x="175.5" y="12.5" fill="none" stroke="#4D4D4D" stroke-miterlimit="10" width="54" height="54"/>
	<rect x="175.5" y="81.5" fill="none" stroke="#4D4D4D" stroke-miterlimit="10" width="54" height="54"/>
	<rect x="256.5" y="80.5" fill="none" stroke="#4D4D4D" stroke-miterlimit="10" width="54" height="54"/>
	<rect x="189.5" y="149.5" fill="none" stroke="#4D4D4D" stroke-miterlimit="10" width="54" height="54"/>
	<rect x="177.5" y="203.5" fill="none" stroke="#4D4D4D" stroke-miterlimit="10" width="54" height="54"/>
	<rect x="270.5" y="216.5" fill="none" stroke="#4D4D4D" stroke-miterlimit="10" width="54" height="54"/>
	<rect x="216.5" y="270.5" fill="none" stroke="#4D4D4D" stroke-miterlimit="10" width="54" height="54"/>
	<rect x="324.5" y="270.5" fill="none" stroke="#4D4D4D" stroke-miterlimit="10" width="54" height="54"/>
	<rect x="378.5" y="270.5" fill="none" stroke="#4D4D4D" stroke-miterlimit="10" width="54" height="54"/>
	<rect x="162.5" y="270.5" fill="none" stroke="#4D4D4D" stroke-miterlimit="10" width="54" height="54"/>
	<rect x="243.5" y="162.5" fill="none" stroke="#4D4D4D" stroke-miterlimit="10" width="54" height="54"/>
	<rect x="270.5" y="270.5" fill="none" stroke="#4D4D4D" stroke-miterlimit="10" width="54" height="54"/>
	<rect x="270.5" y="324.5" fill="none" stroke="#4D4D4D" stroke-miterlimit="10" width="54" height="54"/>
	<rect x="270.5" y="378.5" fill="none" stroke="#4D4D4D" stroke-miterlimit="10" width="54" height="54"/>
	<rect x="324.5" y="378.5" fill="none" stroke="#4D4D4D" stroke-miterlimit="10" width="54" height="54"/>
	<rect x="378.5" y="392.5" fill="none" stroke="#4D4D4D" stroke-miterlimit="10" width="54" height="54"/>
	<rect x="378.5" y="338.5" fill="none" stroke="#4D4D4D" stroke-miterlimit="10" width="54" height="54"/>
	<rect x="216.5" y="378.5" fill="none" stroke="#4D4D4D" stroke-miterlimit="10" width="54" height="54"/>
	<rect x="162.5" y="338.5" fill="none" stroke="#4D4D4D" stroke-miterlimit="10" width="54" height="54"/>
	<rect x="162.5" y="392.5" fill="none" stroke="#4D4D4D" stroke-miterlimit="10" width="54" height="54"/>
	<rect x="297.5" y="162.5" fill="none" stroke="#4D4D4D" stroke-miterlimit="10" width="54" height="54"/>
	<rect x="378.5" y="66.5" fill="none" stroke="#4D4D4D" stroke-miterlimit="10" width="54" height="54"/>
	<rect x="351.5" y="162.5" fill="none" stroke="#4D4D4D" stroke-miterlimit="10" width="54" height="54"/>
	<rect x="229.5" y="12.5" fill="none" stroke="#4D4D4D" stroke-miterlimit="10" width="54" height="54"/>
	<rect x="283.5" y="0.5" fill="none" stroke="#4D4D4D" stroke-miterlimit="10" width="54" height="54"/>
	<rect x="337.5" y="0.5" fill="none" stroke="#4D4D4D" stroke-miterlimit="10" width="54" height="54"/>
	<rect x="391.5" y="0.5" fill="none" stroke="#4D4D4D" stroke-miterlimit="10" width="54" height="54"/>
	<rect x="108.5" y="81.5" fill="none" stroke="#4D4D4D" stroke-miterlimit="10" width="54" height="54"/>
	<rect x="54.5" y="162.5" fill="none" stroke="#4D4D4D" stroke-miterlimit="10" width="54" height="54"/>
	<rect x="54.5" y="216.5" fill="none" stroke="#4D4D4D" stroke-miterlimit="10" width="54" height="54"/>
	<rect x="54.5" y="270.5" fill="none" stroke="#4D4D4D" stroke-miterlimit="10" width="54" height="54"/>
	<rect x="54.5" y="324.5" fill="none" stroke="#4D4D4D" stroke-miterlimit="10" width="54" height="54"/>
	<rect x="54.5" y="378.5" fill="none" stroke="#4D4D4D" stroke-miterlimit="10" width="54" height="54"/>
	<rect x="0.5" y="378.5" fill="none" stroke="#4D4D4D" stroke-miterlimit="10" width="54" height="54"/>
</g>
</svg>
